<svg width="200" height="30" viewBox="0 0 200 30" fill="none" xmlns="http://www.w3.org/2000/svg">
<path d="M12.395 16.0672C12.395 18.1789 10.6506 19.9234 8.53883 19.9234C6.4271 19.9234 4.68262 18.1789 4.68262 16.0672C4.68262 13.9554 6.4271 12.2109 8.53883 12.2109C10.6506 12.2109 12.395 13.9554 12.395 16.0672Z" fill="#009EF7"/>
<path d="M27.4529 7.7124C22.7704 7.7124 19.006 11.4768 19.006 16.1593C19.006 20.8419 22.7704 24.6063 27.4529 24.6063C29.0138 24.6063 30.4828 24.1472 31.6764 23.5045L31.86 23.4127C32.2273 23.1373 32.5027 22.6782 32.5027 22.1273C32.5027 21.301 31.86 20.6583 31.0337 20.6583C30.8501 20.6583 30.6664 20.6583 30.4828 20.7501L30.2074 20.9337C29.381 21.3928 28.4629 21.6682 27.4529 21.6682C25.1576 21.6682 23.1376 20.1992 22.4031 18.0875H31.5846H34.5227C34.7063 18.0875 34.9817 17.9956 35.2572 17.812C35.4408 17.7202 35.5326 17.5366 35.6244 17.4448C35.7162 17.2611 35.8081 17.0775 35.8999 16.8021C35.8999 16.6184 35.8999 16.4348 35.8999 16.2512C35.8999 11.4768 32.0437 7.7124 27.4529 7.7124ZM27.4529 10.7423C30.1156 10.7423 32.3191 12.6704 32.7782 15.1494H22.1277C22.5868 12.6704 24.7903 10.7423 27.4529 10.7423Z" fill="white"/>
<path d="M82.8167 7.7124C78.1341 7.7124 74.3698 11.4768 74.3698 16.1593C74.3698 20.8419 78.1341 24.6063 82.8167 24.6063C84.3775 24.6063 85.8466 24.1472 87.0402 23.5045L87.2238 23.4127C87.5911 23.1373 87.8665 22.6782 87.8665 22.1273C87.8665 21.301 87.2238 20.6583 86.3975 20.6583C86.2138 20.6583 86.0302 20.6583 85.8466 20.7501L85.5711 20.9337C84.7448 21.3928 83.8267 21.6682 82.8167 21.6682C80.5213 21.6682 78.5014 20.1992 77.7669 18.0875H86.9484H89.8864C90.0701 18.0875 90.3455 17.9956 90.6209 17.812C90.8046 17.7202 90.8964 17.5366 90.9882 17.4448C91.08 17.2611 91.1718 17.0775 91.2636 16.8021C91.2636 16.6184 91.2636 16.4348 91.2636 16.2512C91.3555 11.4768 87.4992 7.7124 82.8167 7.7124ZM82.8167 10.7423C85.4793 10.7423 87.6829 12.6704 88.1419 15.1494H77.4915C78.0423 12.6704 80.1541 10.7423 82.8167 10.7423Z" fill="white"/>
<path d="M8.53876 7.52857C6.42702 7.52857 4.4071 8.3549 2.93807 9.64031V5.04957V2.57058C2.93807 1.83606 2.29537 1.19336 1.56085 1.19336H1.37722C0.642702 1.19336 0 1.83606 0 2.57058V5.32502V6.97768V15.9755V16.0673C0 16.1591 0 16.1591 0 16.1591V16.251V16.5264C0.275444 21.0253 3.94803 24.6061 8.53876 24.6061C13.2213 24.6061 17.0775 20.7499 17.0775 16.0673C17.0775 11.3848 13.2213 7.52857 8.53876 7.52857ZM8.53876 21.668C6.97791 21.668 5.60069 21.0253 4.59073 20.0154C3.58077 19.0054 2.93807 17.6282 2.93807 16.0673C2.93807 14.5065 3.58077 13.1293 4.59073 12.1193C5.60069 11.1093 6.97791 10.4666 8.53876 10.4666C10.0996 10.4666 11.4768 11.1093 12.4868 12.1193C13.4968 13.1293 14.1395 14.5065 14.1395 16.0673C14.1395 17.6282 13.4968 19.0054 12.4868 20.0154C11.4768 21.0253 10.0996 21.668 8.53876 21.668Z" fill="white"/>
<path d="M45.9992 7.7124C43.9792 7.7124 42.1429 8.44692 40.6739 9.64051V9.18144C40.6739 8.35511 40.0312 7.7124 39.2049 7.7124C38.3785 7.7124 37.7358 8.35511 37.7358 9.18144V23.2291C37.7358 24.0554 38.3785 24.6981 39.2049 24.6981C40.0312 24.6981 40.6739 24.0554 40.6739 23.2291V21.5764V16.0675C40.6739 14.5985 41.2248 13.3131 42.2348 12.3031C43.1529 11.385 44.5301 10.7423 45.9992 10.7423C47.4682 10.7423 48.7536 11.2932 49.7636 12.3031C50.6817 13.2213 51.3244 14.5985 51.3244 16.0675V21.6682V23.3209C51.3244 24.1472 51.9671 24.7899 52.7934 24.7899C53.6198 24.7899 54.2625 24.1472 54.2625 23.3209V16.8021C54.2625 16.5266 54.2625 16.343 54.2625 16.0675C54.1707 11.385 50.4981 7.7124 45.9992 7.7124Z" fill="white"/>
<path d="M64.2698 7.7124C62.2499 7.7124 60.4136 8.44692 58.9445 9.64051V9.18144C58.9445 8.35511 58.3018 7.7124 57.4755 7.7124C56.6492 7.7124 56.0065 8.35511 56.0065 9.18144V23.2291C56.0065 24.0554 56.6492 24.6981 57.4755 24.6981C58.3018 24.6981 58.9445 24.0554 58.9445 23.2291V21.5764V16.0675C58.9445 14.5985 59.4954 13.3131 60.5054 12.3031C61.4235 11.385 62.8008 10.7423 64.2698 10.7423C65.7388 10.7423 67.0242 11.2932 68.0342 12.3031C69.0441 13.3131 69.595 14.5985 69.595 16.0675V21.6682V23.3209C69.595 24.1472 70.2377 24.7899 71.0641 24.7899C71.8904 24.7899 72.5331 24.1472 72.5331 23.3209V16.8021C72.5331 16.5266 72.5331 16.343 72.5331 16.0675C72.5331 11.385 68.8605 7.7124 64.2698 7.7124Z" fill="white"/>
<path d="M104.668 8.44692L104.485 8.35511C103.566 7.98785 102.556 7.80422 101.455 7.80422C99.4348 7.80422 97.5985 8.53873 96.1295 9.73232V9.18144C96.1295 8.35511 95.4868 7.7124 94.6604 7.7124C93.8341 7.7124 93.1914 8.35511 93.1914 9.18144V23.2291C93.1914 24.0554 93.8341 24.6981 94.6604 24.6981C95.4868 24.6981 96.1295 24.0554 96.1295 23.2291V16.0675C96.1295 14.5985 96.6804 13.3131 97.6903 12.3031C98.6085 11.385 99.9857 10.7423 101.455 10.7423C102.189 10.7423 102.832 10.9259 103.475 11.1095L103.75 11.2014C103.842 11.2014 103.934 11.2014 104.117 11.2014C104.944 11.2014 105.586 10.5587 105.586 9.73232C105.495 9.18144 105.127 8.63055 104.668 8.44692Z" fill="white"/>
<path d="M116.513 24.7902V6.51904H117.523V24.7902H116.513Z" fill="white"/>
<path d="M132.287 24H133.507L136.388 12.9659C136.681 11.6965 137.022 10.5979 137.291 9.32853H137.389C137.657 10.5979 137.95 11.6965 138.243 12.9659L141.172 24H142.417L146.006 7.91265H144.907L142.881 17.3844C142.515 19.1421 142.198 20.8753 141.832 22.6329H141.734C141.295 20.8753 140.88 19.1421 140.44 17.3844L137.926 7.91265H136.778L134.264 17.3844C133.825 19.1421 133.41 20.8997 133.019 22.6329H132.921C132.555 20.8997 132.189 19.1421 131.823 17.3844L129.797 7.91265H128.625L132.287 24ZM149.095 24H158.152V23.0235H150.218V15.9441H156.662V14.9676H150.218V8.88912H157.907V7.91265H149.095V24ZM160.413 21.8762C161.683 23.2921 163.514 24.2929 165.857 24.2929C168.982 24.2929 171.008 22.4376 171.008 19.9721C171.008 17.5065 169.421 16.5056 167.615 15.7L165.174 14.6259C164.002 14.0888 162.391 13.3809 162.391 11.5256C162.391 9.76794 163.831 8.645 165.955 8.645C167.566 8.645 168.835 9.30412 169.787 10.305L170.422 9.54823C169.446 8.49853 167.883 7.6197 165.955 7.6197C163.269 7.6197 161.268 9.25529 161.268 11.5744C161.268 13.9668 163.123 14.9676 164.539 15.5779L166.98 16.6765C168.567 17.3844 169.861 18.0435 169.861 20.0453C169.861 21.9494 168.323 23.2676 165.857 23.2676C164.002 23.2676 162.317 22.4132 161.146 21.095L160.413 21.8762ZM173.022 24H182.591V23.0235H177.269C176.415 23.0235 175.512 23.0968 174.657 23.1456C178.978 18.5562 181.81 15.5779 181.81 12.4776C181.81 9.84117 180.199 8.10794 177.416 8.10794C175.512 8.10794 174.145 9.10882 172.973 10.4026L173.681 11.0862C174.633 9.91441 175.902 9.03559 177.318 9.03559C179.662 9.03559 180.711 10.5491 180.711 12.5021C180.711 15.2118 178.148 18.1168 173.022 23.3165V24ZM184.703 24H194.272V23.0235H188.951C188.096 23.0235 187.193 23.0968 186.339 23.1456C190.659 18.5562 193.491 15.5779 193.491 12.4776C193.491 9.84117 191.88 8.10794 189.097 8.10794C187.193 8.10794 185.826 9.10882 184.654 10.4026L185.362 11.0862C186.314 9.91441 187.584 9.03559 188.999 9.03559C191.343 9.03559 192.393 10.5491 192.393 12.5021C192.393 15.2118 189.829 18.1168 184.703 23.3165V24Z" fill="white"/>
</svg>
