<?xml version="1.0" encoding="UTF-8"?>
<svg id="Layer_1" data-name="Layer 1" xmlns="http://www.w3.org/2000/svg" viewBox="0 0 720.71 238.2">
  <defs>
    <style>
      .cls-1 {
        fill: #e51f48;
      }

      .cls-2 {
        fill: #ffffff;
      }

      .cls-3 {
        fill: #2539ff;
      }
    </style>
  </defs>
  <g>
    <path class="cls-1" d="M218.59,133.93c-6.47,6.76-15.57,10.97-25.67,10.97-15.59,0-28.82-10.04-33.62-24h93.32c.72-3.74,1.11-7.59,1.11-11.54,0-33.59-27.23-60.81-60.81-60.81s-60.81,27.23-60.81,60.81,27.23,60.81,60.81,60.81c24.84,0,46.19-14.9,55.63-36.24h-29.96ZM192.93,73.82c14.76,0,27.42,9,32.79,21.81h-65.58c5.37-12.81,18.03-21.81,32.79-21.81Z"/>
    <path class="cls-1" d="M218.59,133.93c-6.47,6.76-15.57,10.97-25.67,10.97-15.59,0-28.82-10.04-33.62-24h93.32c.72-3.74,1.11-7.59,1.11-11.54,0-33.59-27.23-60.81-60.81-60.81s-60.81,27.23-60.81,60.81,27.23,60.81,60.81,60.81c24.84,0,46.19-14.9,55.63-36.24h-29.96ZM192.93,73.82c14.76,0,27.42,9,32.79,21.81h-65.58c5.37-12.81,18.03-21.81,32.79-21.81Z"/>
    <path class="cls-1" d="M421.28,170.17v-60.91c0-19.63,15.91-35.54,35.54-35.54s35.54,15.91,35.54,35.54v60.91h25.27v-60.91c0-33.59-27.23-60.81-60.81-60.81s-60.81,27.23-60.81,60.81v60.91h25.27Z"/>
    <path class="cls-1" d="M289.31,170.17v-60.91c0-19.63,15.91-35.54,35.54-35.54s35.54,15.91,35.54,35.54v60.91h25.27v-60.91c0-33.59-27.23-60.81-60.81-60.81s-60.81,27.23-60.81,60.81v60.91h25.27Z"/>
    <path class="cls-1" d="M720.71,48.45c-33.59,0-60.81,27.23-60.81,60.81v60.91h25.27v-60.91c0-19.63,15.91-35.54,35.54-35.54v-25.27Z"/>
    <path class="cls-1" d="M614.44,133.93c-6.47,6.76-15.57,10.97-25.67,10.97-15.59,0-28.82-10.04-33.62-24h93.32c.72-3.74,1.11-7.59,1.11-11.54,0-33.59-27.23-60.81-60.81-60.81s-60.81,27.23-60.81,60.81,27.23,60.81,60.81,60.81c24.84,0,46.19-14.9,55.63-36.24h-29.96ZM588.78,73.82c14.76,0,27.42,9,32.79,21.81h-65.58c5.37-12.81,18.03-21.81,32.79-21.81Z"/>
    <g>
      <path class="cls-3" d="M55.95,170.25v-52.02s-.05-.07-.09-.05l-45.04,26.01c10.38,14.96,27.02,24.57,45.13,26.07Z"/>
      <path class="cls-1" d="M60.94,48.55c-13.2,0-25.41,4.21-35.39,11.35V0H0v109.89c.06,9.01,2.08,17.55,5.65,25.22l22.27-12.86c-1.49-3.84-2.33-8.01-2.38-12.37h0v-.81c.23-19.36,15.98-34.98,35.39-34.98s35.4,15.85,35.4,35.4c0,17.7-12.99,32.37-29.96,34.99v25.7c31.1-2.76,55.5-28.87,55.5-60.69,0-33.66-27.28-60.94-60.94-60.94Z"/>
    </g>
  </g>
  <g>
    <path class="cls-2" d="M360.36,194.15h6.11v17.86c2.19-2.81,5.52-4.66,10.55-4.66,8.42,0,14.87,6.17,14.87,15.27s-6.45,15.58-14.87,15.58c-5.03,0-8.36-1.85-10.55-4.66v4.04h-6.11v-43.44ZM376.27,232.71c5.71,0,9.5-4.63,9.5-10.09s-3.79-9.78-9.5-9.78-9.78,4.32-9.78,9.78,4.07,10.09,9.78,10.09Z"/>
    <path class="cls-2" d="M410.7,207.35c8.64,0,14.25,6.42,14.25,14.35,0,.93-.06,1.88-.25,2.84h-22.98c.28,4.44,4.07,7.93,9.19,7.93,3.7,0,6.66-1.57,8.88-5.06l4.5,3.27c-2.75,4.94-8.14,7.53-13.39,7.53-8.95,0-15.52-6.6-15.52-15.39s6.32-15.46,15.3-15.46ZM418.75,219.97c-.37-4.16-3.86-7.1-8.11-7.1-4.54,0-7.99,2.93-8.76,7.1h16.88Z"/>
    <path class="cls-2" d="M440.05,213.15v-5.18h5.37v-9.5h5.95v9.5h9.41v5.18h-9.35v14.81c0,3.15,1.82,4.72,4.84,4.72,1.42,0,3.36-.4,4.81-1.02l.8,5.24c-1.48.77-4.1,1.3-6.48,1.3-6.2,0-10.09-3.49-10.09-9.5v-15.55h-5.28Z"/>
    <path class="cls-2" d="M466.08,237.58v-43.44h6.14v17.55c.99-1.51,3.79-4.35,9.1-4.35,7.99,0,12.28,5.06,12.28,12.25v17.99h-6.11v-16.69c0-4.9-2.68-7.74-7.13-7.74s-8.18,2.84-8.18,7.74v16.69h-6.11Z"/>
    <path class="cls-2" d="M514.14,207.35c8.64,0,14.25,6.42,14.25,14.35,0,.93-.06,1.88-.25,2.84h-22.98c.28,4.44,4.07,7.93,9.19,7.93,3.7,0,6.66-1.57,8.88-5.06l4.5,3.27c-2.75,4.94-8.14,7.53-13.39,7.53-8.95,0-15.52-6.6-15.52-15.39s6.32-15.46,15.3-15.46ZM522.19,219.97c-.37-4.16-3.86-7.1-8.11-7.1-4.54,0-7.99,2.93-8.76,7.1h16.88Z"/>
    <path class="cls-2" d="M543.62,213.15v-5.18h5.68v-3.21c0-6.85,4.26-11.23,11.48-11.23,2.62,0,4.38.8,4.9,1.08l-.65,5.06c-.83-.37-2.44-.77-3.98-.77-3.98,0-5.83,1.91-5.83,6.2v2.87h8.73v5.18h-8.64v24.43h-6.11v-24.43h-5.58Z"/>
    <path class="cls-2" d="M573.69,207.97v16.69c0,4.9,2.68,7.74,7.22,7.74s8.33-2.84,8.33-7.74v-16.69h6.11v29.62h-6.14v-3.73c-.99,1.51-3.79,4.35-9.26,4.35-8.08,0-12.37-5.06-12.37-12.25v-17.99h6.11Z"/>
    <path class="cls-2" d="M599.65,213.15v-5.18h5.37v-9.5h5.95v9.5h9.41v5.18h-9.35v14.81c0,3.15,1.82,4.72,4.84,4.72,1.42,0,3.36-.4,4.81-1.02l.8,5.24c-1.48.77-4.1,1.3-6.48,1.3-6.2,0-10.09-3.49-10.09-9.5v-15.55h-5.28Z"/>
    <path class="cls-2" d="M631.39,207.97v16.69c0,4.9,2.68,7.74,7.22,7.74s8.33-2.84,8.33-7.74v-16.69h6.11v29.62h-6.14v-3.73c-.99,1.51-3.79,4.35-9.26,4.35-8.08,0-12.37-5.06-12.37-12.25v-17.99h6.11Z"/>
    <path class="cls-2" d="M660.85,237.58v-29.62h6.14v4.04c1.67-3.24,4.47-4.66,7.71-4.66,2.31,0,4.07.74,4.07.74l-.65,5.61c-.34-.12-1.67-.68-3.61-.68-3.27,0-7.53,1.73-7.53,8.42v16.13h-6.14Z"/>
    <path class="cls-2" d="M694.96,207.35c8.64,0,14.25,6.42,14.25,14.35,0,.93-.06,1.88-.25,2.84h-22.98c.28,4.44,4.07,7.93,9.19,7.93,3.7,0,6.66-1.57,8.88-5.06l4.5,3.27c-2.75,4.94-8.14,7.53-13.39,7.53-8.95,0-15.52-6.6-15.52-15.39s6.32-15.46,15.3-15.46ZM703.01,219.97c-.37-4.16-3.86-7.1-8.11-7.1-4.53,0-7.99,2.93-8.76,7.1h16.88Z"/>
    <path class="cls-1" d="M716.92,230.64c2.16,0,3.79,1.7,3.79,3.79s-1.64,3.76-3.79,3.76-3.76-1.67-3.76-3.76,1.6-3.79,3.76-3.79Z"/>
  </g>
</svg>